<svg width="338" height="164" viewBox="0 0 338 164" fill="none" xmlns="http://www.w3.org/2000/svg">
<path d="M1.84042 6.70044H45.6954V20.6054H24.8534V142.274H45.2612V156.178H1.84042V6.70044Z" fill="white"/>
<path d="M335.764 6.70044V156.178H292.343V142.274H312.751V20.6054H291.909V6.70044H335.764Z" fill="white"/>
<path d="M108.221 145.315C103.445 145.315 99.103 144.881 94.7609 143.577C90.4189 142.274 86.511 140.535 82.6031 137.928C79.1294 135.321 76.09 132.714 73.9189 128.803C71.7479 125.327 70.8795 120.982 70.8795 116.636V55.8022H98.6688V113.16C98.6688 117.071 99.9714 120.547 103.011 123.154C106.05 125.761 110.392 127.065 116.037 127.065C121.682 127.065 126.024 125.761 129.063 123.154C132.103 120.547 133.84 117.071 133.84 112.726V55.8022H161.195V143.143H140.353C139.919 139.666 139.484 136.19 138.616 132.714C135.576 135.321 132.971 137.059 131.234 138.363C128.195 140.101 126.024 140.97 124.287 141.405C122.984 141.839 121.682 142.274 119.945 142.708C116.037 144.446 112.129 145.315 108.221 145.315ZM218.076 145.315C205.05 145.315 194.629 141.405 187.247 133.148C179.866 124.892 176.392 113.595 176.392 99.2552C176.392 90.1301 177.695 82.3085 180.734 75.3561C183.774 68.8381 188.116 63.6238 193.76 59.713C199.405 55.8022 206.787 54.0641 215.037 54.0641C218.51 54.0641 221.984 54.4987 225.023 55.3677C228.063 56.2368 231.102 57.1058 233.708 58.4094C236.313 59.713 238.484 61.0166 240.221 62.7547C241.957 64.4928 243.694 66.231 244.997 67.9691V17.5637H272.786V143.577H252.813C251.51 139.232 250.642 134.452 249.339 130.107C248.036 131.41 246.734 133.148 244.563 135.321C243.26 136.625 241.957 137.928 239.786 139.232C238.05 140.535 235.01 142.274 230.668 143.577C226.76 144.446 222.852 145.315 218.076 145.315ZM224.155 127.5C231.102 127.5 236.313 125.327 239.786 120.982C243.26 116.636 244.997 109.249 244.997 98.8206C244.997 92.7372 244.129 87.9574 242.826 84.0466C241.089 80.1359 238.918 77.0942 235.879 75.3561C232.839 73.1834 228.931 72.3144 224.589 72.3144C218.51 72.3144 213.734 74.487 209.392 78.3978C205.484 82.3085 203.313 89.261 203.313 98.8206C203.313 108.38 205.05 115.767 208.958 120.547C212.431 124.892 217.642 127.5 224.155 127.5Z" fill="white"/>
</svg>
