<svg width="76" height="76" viewBox="0 0 76 76" fill="none" xmlns="http://www.w3.org/2000/svg">
<g filter="url(#filter0_d_6_10058)">
<rect x="8" y="1" width="60" height="60" rx="10" fill="url(#paint0_linear_6_10058)"/>
</g>
<path d="M17.4265 21.8171H22.8241V23.5129H20.2589V38.3504H22.7706V40.0462H17.4265V21.8171Z" fill="white"/>
<path d="M58.5248 21.8171V40.0462H53.1807V38.3504H55.6924V23.5129H53.1273V21.8171H58.5248Z" fill="white"/>
<path d="M30.5196 38.7214C29.9317 38.7214 29.3973 38.6684 28.8629 38.5095C28.3285 38.3505 27.8475 38.1385 27.3665 37.8206C26.939 37.5026 26.5649 37.1847 26.2977 36.7078C26.0305 36.2838 25.9236 35.7539 25.9236 35.224V27.8052H29.3439V34.8001C29.3439 35.277 29.5042 35.7009 29.8783 36.0189C30.2524 36.3368 30.7868 36.4958 31.4815 36.4958C32.1762 36.4958 32.7106 36.3368 33.0847 36.0189C33.4588 35.7009 33.6726 35.277 33.6726 34.7471V27.8052H37.0394V38.4565H34.4742C34.4208 38.0325 34.3673 37.6086 34.2604 37.1847C33.8863 37.5026 33.5657 37.7146 33.3519 37.8736C32.9778 38.0855 32.7106 38.1915 32.4969 38.2445C32.3366 38.2975 32.1762 38.3505 31.9625 38.4035C31.4815 38.6154 31.0005 38.7214 30.5196 38.7214ZM44.0401 38.7214C42.4369 38.7214 41.1543 38.2445 40.2458 37.2377C39.3373 36.2308 38.9098 34.8531 38.9098 33.1043C38.9098 31.9915 39.0701 31.0377 39.4442 30.1898C39.8183 29.3949 40.3527 28.7591 41.0474 28.2821C41.7422 27.8052 42.6507 27.5932 43.666 27.5932C44.0936 27.5932 44.5211 27.6462 44.8952 27.7522C45.2693 27.8582 45.6434 27.9642 45.964 28.1232C46.2847 28.2821 46.5519 28.4411 46.7656 28.6531C46.9794 28.865 47.1931 29.077 47.3535 29.289V23.142H50.7737V38.5095H48.3154C48.1551 37.9796 48.0482 37.3966 47.8879 36.8667C47.7276 37.0257 47.5672 37.2377 47.3 37.5026C47.1397 37.6616 46.9794 37.8206 46.7122 37.9796C46.4984 38.1385 46.1243 38.3505 45.5899 38.5095C45.1089 38.6154 44.628 38.7214 44.0401 38.7214ZM44.7883 36.5488C45.6434 36.5488 46.2847 36.2838 46.7122 35.7539C47.1397 35.224 47.3535 34.3231 47.3535 33.0514C47.3535 32.3095 47.2466 31.7266 47.0863 31.2496C46.8725 30.7727 46.6053 30.4018 46.2312 30.1898C45.8571 29.9249 45.3762 29.8189 44.8417 29.8189C44.0936 29.8189 43.5057 30.0838 42.9713 30.5608C42.4903 31.0377 42.2231 31.8855 42.2231 33.0514C42.2231 34.2172 42.4369 35.118 42.9179 35.7009C43.3454 36.2308 43.9867 36.5488 44.7883 36.5488Z" fill="white"/>
<defs>
<filter id="filter0_d_6_10058" x="0" y="0" width="76" height="76" filterUnits="userSpaceOnUse" color-interpolation-filters="sRGB">
<feFlood flood-opacity="0" result="BackgroundImageFix"/>
<feColorMatrix in="SourceAlpha" type="matrix" values="0 0 0 0 0 0 0 0 0 0 0 0 0 0 0 0 0 0 127 0" result="hardAlpha"/>
<feOffset dy="7"/>
<feGaussianBlur stdDeviation="4"/>
<feComposite in2="hardAlpha" operator="out"/>
<feColorMatrix type="matrix" values="0 0 0 0 0.246597 0 0 0 0 0.266682 0 0 0 0 0.279167 0 0 0 0.2 0"/>
<feBlend mode="normal" in2="BackgroundImageFix" result="effect1_dropShadow_6_10058"/>
<feBlend mode="normal" in="SourceGraphic" in2="effect1_dropShadow_6_10058" result="shape"/>
</filter>
<linearGradient id="paint0_linear_6_10058" x1="69.4" y1="-1.4" x2="8" y2="61" gradientUnits="userSpaceOnUse">
<stop stop-color="#323C41"/>
<stop offset="1"/>
</linearGradient>
</defs>
</svg>
