<svg width="16" height="16" viewBox="0 0 16 16" fill="none" xmlns="http://www.w3.org/2000/svg">
<path d="M1.33325 7.33332H14.6666V13.3333C14.6666 13.5101 14.5963 13.6797 14.4713 13.8047C14.3463 13.9298 14.1767 14 13.9999 14H1.99992C1.82311 14 1.65354 13.9298 1.52851 13.8047C1.40349 13.6797 1.33325 13.5101 1.33325 13.3333V7.33332ZM11.3333 1.99999H13.9999C14.1767 1.99999 14.3463 2.07023 14.4713 2.19525C14.5963 2.32028 14.6666 2.48985 14.6666 2.66666V5.99999H1.33325V2.66666C1.33325 2.48985 1.40349 2.32028 1.52851 2.19525C1.65354 2.07023 1.82311 1.99999 1.99992 1.99999H4.66659V0.666656H5.99992V1.99999H9.99992V0.666656H11.3333V1.99999Z" fill="#0F1324" fill-opacity="0.6"/>
</svg>
