<svg width="20" height="20" viewBox="0 0 20 20" fill="none" xmlns="http://www.w3.org/2000/svg">
<path d="M5.83333 4.99999V2.49999C5.83333 2.27898 5.92113 2.06701 6.07741 1.91073C6.23369 1.75445 6.44565 1.66666 6.66667 1.66666H16.6667C16.8877 1.66666 17.0996 1.75445 17.2559 1.91073C17.4122 2.06701 17.5 2.27898 17.5 2.49999V14.1667C17.5 14.3877 17.4122 14.5996 17.2559 14.7559C17.0996 14.9122 16.8877 15 16.6667 15H14.1667V17.5C14.1667 17.96 13.7917 18.3333 13.3275 18.3333H3.33917C3.22927 18.334 3.12033 18.3129 3.0186 18.2713C2.91687 18.2298 2.82436 18.1685 2.74638 18.0911C2.6684 18.0136 2.60649 17.9216 2.56421 17.8201C2.52193 17.7187 2.50011 17.6099 2.5 17.5L2.5025 5.83332C2.5025 5.37332 2.8775 4.99999 3.34167 4.99999H5.83333ZM7.5 4.99999H14.1667V13.3333H15.8333V3.33332H7.5V4.99999ZM5.83333 9.16666V10.8333H10.8333V9.16666H5.83333ZM5.83333 12.5V14.1667H10.8333V12.5H5.83333Z" fill="#0F1324" fill-opacity="0.6"/>
</svg>
