<svg width="16" height="16" viewBox="0 0 16 16" fill="none" xmlns="http://www.w3.org/2000/svg">
<path d="M4.66667 4.00004V2.00004C4.66667 1.82323 4.7369 1.65366 4.86193 1.52864C4.98695 1.40361 5.15652 1.33337 5.33333 1.33337H13.3333C13.5101 1.33337 13.6797 1.40361 13.8047 1.52864C13.9298 1.65366 14 1.82323 14 2.00004V11.3334C14 11.5102 13.9298 11.6798 13.8047 11.8048C13.6797 11.9298 13.5101 12 13.3333 12H11.3333V14C11.3333 14.368 11.0333 14.6667 10.662 14.6667H2.67133C2.58342 14.6672 2.49626 14.6504 2.41488 14.6171C2.3335 14.5839 2.25949 14.5349 2.19711 14.4729C2.13472 14.411 2.0852 14.3373 2.05137 14.2561C2.01754 14.175 2.00009 14.088 2 14L2.002 4.66671C2.002 4.29871 2.302 4.00004 2.67333 4.00004H4.66667ZM6 4.00004H11.3333V10.6667H12.6667V2.66671H6V4.00004ZM4.66667 7.33337V8.66671H8.66667V7.33337H4.66667ZM4.66667 10V11.3334H8.66667V10H4.66667Z" fill="#14151A"/>
</svg>
