<svg width="16" height="16" viewBox="0 0 16 16" fill="none" xmlns="http://www.w3.org/2000/svg">
<path d="M8.00016 1.33325C8.17697 1.33325 8.34654 1.40349 8.47157 1.52851C8.59659 1.65354 8.66683 1.82311 8.66683 1.99992V3.99992C8.66683 4.17673 8.59659 4.3463 8.47157 4.47132C8.34654 4.59635 8.17697 4.66659 8.00016 4.66659C7.82335 4.66659 7.65378 4.59635 7.52876 4.47132C7.40373 4.3463 7.3335 4.17673 7.3335 3.99992V1.99992C7.3335 1.82311 7.40373 1.65354 7.52876 1.52851C7.65378 1.40349 7.82335 1.33325 8.00016 1.33325V1.33325ZM8.00016 11.3333C8.17697 11.3333 8.34654 11.4035 8.47157 11.5285C8.59659 11.6535 8.66683 11.8231 8.66683 11.9999V13.9999C8.66683 14.1767 8.59659 14.3463 8.47157 14.4713C8.34654 14.5963 8.17697 14.6666 8.00016 14.6666C7.82335 14.6666 7.65378 14.5963 7.52876 14.4713C7.40373 14.3463 7.3335 14.1767 7.3335 13.9999V11.9999C7.3335 11.8231 7.40373 11.6535 7.52876 11.5285C7.65378 11.4035 7.82335 11.3333 8.00016 11.3333V11.3333ZM14.6668 7.99992C14.6668 8.17673 14.5966 8.3463 14.4716 8.47132C14.3465 8.59635 14.177 8.66659 14.0002 8.66659H12.0002C11.8234 8.66659 11.6538 8.59635 11.5288 8.47132C11.4037 8.3463 11.3335 8.17673 11.3335 7.99992C11.3335 7.82311 11.4037 7.65354 11.5288 7.52851C11.6538 7.40349 11.8234 7.33325 12.0002 7.33325H14.0002C14.177 7.33325 14.3465 7.40349 14.4716 7.52851C14.5966 7.65354 14.6668 7.82311 14.6668 7.99992ZM4.66683 7.99992C4.66683 8.17673 4.59659 8.3463 4.47157 8.47132C4.34654 8.59635 4.17697 8.66659 4.00016 8.66659H2.00016C1.82335 8.66659 1.65378 8.59635 1.52876 8.47132C1.40373 8.3463 1.3335 8.17673 1.3335 7.99992C1.3335 7.82311 1.40373 7.65354 1.52876 7.52851C1.65378 7.40349 1.82335 7.33325 2.00016 7.33325H4.00016C4.17697 7.33325 4.34654 7.40349 4.47157 7.52851C4.59659 7.65354 4.66683 7.82311 4.66683 7.99992ZM12.7142 12.7139C12.5891 12.8389 12.4196 12.9091 12.2428 12.9091C12.0661 12.9091 11.8965 12.8389 11.7715 12.7139L10.3575 11.2999C10.2361 11.1742 10.1689 11.0058 10.1704 10.831C10.1719 10.6562 10.242 10.489 10.3656 10.3654C10.4892 10.2418 10.6564 10.1717 10.8312 10.1701C11.006 10.1686 11.1744 10.2358 11.3002 10.3573L12.7142 11.7706C12.7761 11.8325 12.8253 11.906 12.8589 11.987C12.8924 12.0679 12.9097 12.1546 12.9097 12.2423C12.9097 12.3299 12.8924 12.4166 12.8589 12.4975C12.8253 12.5785 12.7761 12.652 12.7142 12.7139V12.7139ZM5.64283 5.64259C5.51781 5.76757 5.34827 5.83778 5.1715 5.83778C4.99472 5.83778 4.82518 5.76757 4.70016 5.64259L3.28683 4.22925C3.16174 4.10425 3.09142 3.93467 3.09136 3.75782C3.0913 3.58097 3.16149 3.41135 3.2865 3.28625C3.4115 3.16116 3.58108 3.09085 3.75793 3.09078C3.93477 3.09072 4.1044 3.16091 4.2295 3.28592L5.64283 4.69992C5.76781 4.82494 5.83802 4.99448 5.83802 5.17125C5.83802 5.34803 5.76781 5.51757 5.64283 5.64259V5.64259ZM3.28683 12.7139C3.16185 12.5889 3.09164 12.4194 3.09164 12.2426C3.09164 12.0658 3.16185 11.8963 3.28683 11.7713L4.70083 10.3573C4.76233 10.2936 4.83589 10.2428 4.91723 10.2079C4.99856 10.1729 5.08604 10.1545 5.17456 10.1538C5.26308 10.153 5.35087 10.1699 5.4328 10.2034C5.51473 10.2369 5.58916 10.2864 5.65176 10.349C5.71435 10.4116 5.76386 10.486 5.79738 10.5679C5.8309 10.6499 5.84777 10.7377 5.847 10.8262C5.84623 10.9147 5.82784 11.0022 5.7929 11.0835C5.75796 11.1649 5.70717 11.2384 5.6435 11.2999L4.23016 12.7139C4.16825 12.7759 4.09472 12.8251 4.01379 12.8586C3.93286 12.8922 3.84611 12.9094 3.7585 12.9094C3.67089 12.9094 3.58413 12.8922 3.5032 12.8586C3.42227 12.8251 3.34874 12.7759 3.28683 12.7139V12.7139ZM10.3575 5.64259C10.2325 5.51757 10.1623 5.34803 10.1623 5.17125C10.1623 4.99448 10.2325 4.82494 10.3575 4.69992L11.7708 3.28592C11.8958 3.16082 12.0654 3.09051 12.2423 3.09045C12.4191 3.09039 12.5887 3.16058 12.7138 3.28559C12.8389 3.41059 12.9092 3.58017 12.9093 3.75702C12.9094 3.93386 12.8392 4.10349 12.7142 4.22859L11.3002 5.64259C11.1751 5.76757 11.0056 5.83778 10.8288 5.83778C10.6521 5.83778 10.4825 5.76757 10.3575 5.64259V5.64259Z" fill="white" fill-opacity="0.6"/>
</svg>
