<svg width="28" height="28" viewBox="0 0 28 28" fill="none" xmlns="http://www.w3.org/2000/svg">
<path d="M0 4C0 1.79086 1.79086 0 4 0H24C26.2091 0 28 1.79086 28 4V24C28 26.2091 26.2091 28 24 28H4C1.79086 28 0 26.2091 0 24V4Z" fill="white" fill-opacity="0.01"/>
<g clip-path="url(#clip0_2022_5220)">
<path d="M14.0001 22.3334C9.39758 22.3334 5.66675 18.6026 5.66675 14.0001C5.66675 9.39758 9.39758 5.66675 14.0001 5.66675C15.294 5.66578 16.5702 5.96656 17.7275 6.5452C18.8848 7.12384 19.8912 7.9644 20.6667 9.00008H18.4084C17.4461 8.15155 16.2594 7.59872 14.9907 7.40792C13.722 7.21712 12.4251 7.39646 11.2558 7.92443C10.0865 8.45239 9.09437 9.30655 8.39847 10.3844C7.70257 11.4623 7.33247 12.718 7.33258 14.001C7.33269 15.284 7.703 16.5397 8.39908 17.6174C9.09515 18.6952 10.0874 19.5492 11.2568 20.0769C12.4262 20.6047 13.7231 20.7838 14.9918 20.5928C16.2605 20.4018 17.4471 19.8488 18.4092 19.0001H20.6676C19.8919 20.0359 18.8854 20.8765 17.728 21.4552C16.5705 22.0338 15.2941 22.3345 14.0001 22.3334V22.3334ZM19.8334 17.3334V14.8334H13.1667V13.1668H19.8334V10.6668L24.0001 14.0001L19.8334 17.3334Z" fill="white" fill-opacity="0.6"/>
</g>
<defs>
<clipPath id="clip0_2022_5220">
<rect width="20" height="20" fill="white" transform="translate(4 4)"/>
</clipPath>
</defs>
</svg>
