<svg width="61" height="60" viewBox="0 0 61 60" fill="none" xmlns="http://www.w3.org/2000/svg">
<path d="M53 20V52.4825C53.0023 52.8108 52.9399 53.1364 52.8164 53.4406C52.6929 53.7447 52.5107 54.0216 52.2802 54.2554C52.0496 54.4892 51.7753 54.6753 51.4729 54.803C51.1704 54.9308 50.8458 54.9977 50.5175 55H10.4825C9.82453 55 9.19348 54.7388 8.72799 54.2738C8.2625 53.8088 8.00066 53.178 8 52.52V7.48C8 6.1375 9.1225 5 10.505 5H37.9925L53 20ZM48 22.5H35.5V10H13V50H48V22.5ZM20.5 17.5H28V22.5H20.5V17.5ZM20.5 27.5H40.5V32.5H20.5V27.5ZM20.5 37.5H40.5V42.5H20.5V37.5Z" fill="#0F1324" fill-opacity="0.6"/>
</svg>
