<svg width="16" height="16" viewBox="0 0 16 16" fill="none" xmlns="http://www.w3.org/2000/svg">
<path d="M12.358 13.0446C11.1483 14.0928 9.60066 14.6688 7.99998 14.6666C4.31798 14.6666 1.33331 11.6819 1.33331 7.99992C1.33331 4.31792 4.31798 1.33325 7.99998 1.33325C11.682 1.33325 14.6666 4.31792 14.6666 7.99992C14.6666 9.42392 14.22 10.7439 13.46 11.8266L11.3333 7.99992H13.3333C13.3332 6.77072 12.9085 5.57929 12.1311 4.62718C11.3537 3.67506 10.2712 3.02071 9.06687 2.77482C7.86252 2.52893 6.6102 2.7066 5.52176 3.27776C4.43333 3.84893 3.5756 4.77853 3.09366 5.90931C2.61173 7.04009 2.53518 8.30262 2.87697 9.48335C3.21876 10.6641 3.95791 11.6905 4.96937 12.389C5.98083 13.0874 7.20251 13.4151 8.42774 13.3165C9.65298 13.2179 10.8066 12.6991 11.6933 11.8479L12.358 13.0446Z" fill="white"/>
</svg>
